<svg width="51" height="51" viewBox="0 0 51 51" fill="none" xmlns="http://www.w3.org/2000/svg">
<path d="M31.8362 2.05737C33.1455 5.35584 33.1454 5.35594 31.2923 8.38257C34.5907 7.0732 34.591 7.0731 37.6175 8.92614C36.3081 5.62767 36.308 5.62777 38.161 2.60114C34.8626 3.91061 34.8627 3.91051 31.8361 2.05737H31.8362ZM11.2583 3.78729C10.0821 5.88307 10.0821 5.88307 7.6998 6.19953C9.79559 7.37582 9.79559 7.37572 10.112 9.75807C11.2882 7.66229 11.2882 7.66229 13.6705 7.34583C11.5747 6.16965 11.5747 6.16965 11.2583 3.78729ZM18.8833 9.38374C18.7885 14.4228 18.7887 14.4228 14.7006 17.3704C19.7396 17.4651 19.7397 17.4651 22.6873 21.553C22.782 16.514 22.782 16.514 26.8699 13.5663C21.8309 13.4717 21.8309 13.4717 18.8832 9.38374H18.8833ZM37.9264 14.9504C37.9218 17.3537 37.9216 17.3535 35.9962 18.7917C38.3995 18.7964 38.3995 18.7963 39.8378 20.7217C39.8425 18.3185 39.8424 18.3186 41.7677 16.8803C39.3645 16.8757 39.3646 16.8758 37.9264 14.9504ZM19.5897 23.3056C19.4737 23.308 19.3577 23.3124 19.2418 23.319C17.39 23.425 15.0714 24.1573 11.5276 25.5658L7.57151 43.1889C15.3895 41.1236 20.8166 41.0065 24.6037 42.7292V24.6743C22.8032 23.7964 21.4371 23.3396 19.9513 23.3059C19.8308 23.3035 19.7103 23.3034 19.5898 23.3057L19.5897 23.3056ZM31.8104 24.4432C31.5276 24.4407 31.2449 24.4439 30.9623 24.4529C29.6863 24.4945 28.2093 24.6736 26.3962 24.9034V42.5477C30.7357 41.7682 37.0394 42.1293 43.4537 43.3013L39.4912 25.6509C35.9149 24.8171 33.8544 24.4645 31.8104 24.4433V24.4432ZM32.0384 26.1316C33.9199 26.1519 35.7092 26.4073 37.3881 26.6316L37.83 28.2775C35.4613 27.9039 31.2592 27.7888 28.6195 28.1798L28.5561 26.4063C29.7473 26.1917 30.9094 26.1194 32.0384 26.1316ZM7.0879 26.5955L6.03035 31.178H8.43034L9.45891 26.5955H7.088H7.0879ZM41.5409 26.5955L45.4996 44.2295L45.7226 45.2229L47.9729 45.2078L43.9033 26.5955H41.5409ZM33.686 32.355C35.3787 32.3576 37.0398 32.4338 38.5814 32.5764L38.9324 34.2871C35.6807 33.9803 31.7028 33.9993 28.6732 34.2871L28.6025 32.5764C30.2693 32.4237 31.9932 32.3525 33.686 32.355ZM5.61677 32.9705L4.92708 35.9592H7.35695L8.02782 32.9705H5.61687H5.61677ZM32.9514 35.6843C33.4152 35.6864 33.8964 35.6928 34.4172 35.7045L34.6717 37.4475C32.6825 37.4006 29.9786 37.5033 28.7223 37.5521L28.6525 35.7606C30.3263 35.7115 31.56 35.6781 32.9514 35.6843ZM37.0828 35.7288C37.9063 35.733 38.746 35.7621 39.4855 35.7357L39.7424 37.5028C38.8805 37.4717 37.2652 37.4201 36.5486 37.4528L36.269 35.7361C36.5402 35.7294 36.8115 35.7269 37.0828 35.7288ZM4.5135 37.7518L2.72203 45.5142L5.21575 45.4972L6.95443 37.7518H4.5136H4.5135ZM34.7115 38.932C36.6646 38.931 38.5624 39.0091 40.3343 39.1882L40.6328 41.2587C37.2157 40.836 32.0908 40.4921 28.7693 40.9356L28.7553 39.1504C30.7495 39.0131 32.7582 38.933 34.7115 38.932ZM18.116 43.3198C15.1165 43.3287 11.3509 43.9423 6.62024 45.288L5.90106 45.4925L24.6036 45.366V44.7338C22.9864 43.8168 20.8762 43.3116 18.1161 43.3198H18.116ZM31.5045 43.9348C29.5491 43.9414 27.8078 44.0781 26.3962 44.3513V45.3538L44.0862 45.234C39.6713 44.3739 35.2073 43.9221 31.5046 43.9348H31.5045ZM2.58984 47.3145V49.1075H48.4102V47.3145H2.58984Z" fill="#F9F8F5"></path>
</svg>
