<svg width="36" height="36" viewBox="0 0 36 36" fill="none" xmlns="http://www.w3.org/2000/svg">
<g filter="url('#filter0_d_184_337')">
<rect x="4" width="27.2" height="27.744" rx="5" fill="#9B1A0F"></rect>
<g filter="url('#filter1_i_184_337')">
<path d="M24.9582 9.93422C24.7271 9.39911 24.3939 8.91419 23.9772 8.50662C23.5602 8.09784 23.0685 7.77298 22.5289 7.54972C21.9694 7.31729 21.3693 7.19832 20.7634 7.19972C19.9134 7.19972 19.0841 7.43248 18.3634 7.87214C18.1909 7.97731 18.0271 8.09283 17.872 8.21869C17.7168 8.09283 17.553 7.97731 17.3806 7.87214C16.6599 7.43248 15.8306 7.19972 14.9806 7.19972C14.3685 7.19972 13.7754 7.31696 13.2151 7.54972C12.6737 7.77386 12.1857 8.09628 11.7668 8.50662C11.3495 8.91373 11.0162 9.39876 10.7857 9.93422C10.5461 10.4911 10.4237 11.0825 10.4237 11.6911C10.4237 12.2653 10.5409 12.8635 10.7737 13.4722C10.9685 13.9808 11.2478 14.5084 11.6047 15.0411C12.1702 15.8842 12.9478 16.7636 13.9133 17.6549C15.5133 19.1325 17.0978 20.1532 17.1651 20.1946L17.5737 20.4567C17.7547 20.5722 17.9875 20.5722 18.1685 20.4567L18.5772 20.1946C18.6444 20.1515 20.2272 19.1325 21.8289 17.6549C22.7944 16.7636 23.572 15.8842 24.1375 15.0411C24.4944 14.5084 24.7755 13.9808 24.9686 13.4722C25.2013 12.8635 25.3186 12.2653 25.3186 11.6911C25.3203 11.0825 25.1979 10.4911 24.9582 9.93422Z" fill="#601005"></path>
</g>
</g>
<defs>
<filter id="filter0_d_184_337" x="0" y="0" width="35.2" height="36" filterUnits="userSpaceOnUse" color-interpolation-filters="sRGB">
<feFlood flood-opacity="0" result="BackgroundImageFix"></feFlood>
<feColorMatrix in="SourceAlpha" type="matrix" values="0 0 0 0 0 0 0 0 0 0 0 0 0 0 0 0 0 0 127 0" result="hardAlpha"></feColorMatrix>
<feOffset dy="4"></feOffset>
<feGaussianBlur stdDeviation="2"></feGaussianBlur>
<feComposite in2="hardAlpha" operator="out"></feComposite>
<feColorMatrix type="matrix" values="0 0 0 0 0 0 0 0 0 0 0 0 0 0 0 0 0 0 0.25 0"></feColorMatrix>
<feBlend mode="normal" in2="BackgroundImageFix" result="effect1_dropShadow_184_337"></feBlend>
<feBlend mode="normal" in="SourceGraphic" in2="effect1_dropShadow_184_337" result="shape"></feBlend>
</filter>
<filter id="filter1_i_184_337" x="9.04434" y="5.04443" width="21.6553" height="21.6553" filterUnits="userSpaceOnUse" color-interpolation-filters="sRGB">
<feFlood flood-opacity="0" result="BackgroundImageFix"></feFlood>
<feBlend mode="normal" in="SourceGraphic" in2="BackgroundImageFix" result="shape"></feBlend>
<feColorMatrix in="SourceAlpha" type="matrix" values="0 0 0 0 0 0 0 0 0 0 0 0 0 0 0 0 0 0 127 0" result="hardAlpha"></feColorMatrix>
<feOffset dx="4" dy="4"></feOffset>
<feGaussianBlur stdDeviation="5"></feGaussianBlur>
<feComposite in2="hardAlpha" operator="arithmetic" k2="-1" k3="1"></feComposite>
<feColorMatrix type="matrix" values="0 0 0 0 0 0 0 0 0 0 0 0 0 0 0 0 0 0 0.1 0"></feColorMatrix>
<feBlend mode="normal" in2="shape" result="effect1_innerShadow_184_337"></feBlend>
</filter>
</defs>
</svg>
