<svg width="35" height="35" viewBox="0 0 35 35" fill="none" xmlns="http://www.w3.org/2000/svg">
<g filter="url('#filter0_d_184_349')">
<g clip-path="url('#clip0_184_349')">
<path d="M26.5 8.47266C25.8438 8.76562 25.1348 8.96484 24.373 9.07031C25.1699 8.60156 25.7148 7.91602 26.0078 7.01367C25.2461 7.45898 24.4609 7.75781 23.6523 7.91016C22.9375 7.13672 22.041 6.75 20.9629 6.75C19.9434 6.75 19.0732 7.11035 18.3525 7.83105C17.6318 8.55176 17.2715 9.42188 17.2715 10.4414C17.2715 10.7812 17.3008 11.0625 17.3594 11.2852C15.8477 11.2031 14.4297 10.8223 13.1055 10.1426C11.7812 9.46289 10.6562 8.55469 9.73047 7.41797C9.39062 8.00391 9.2207 8.625 9.2207 9.28125C9.2207 10.6172 9.75391 11.6426 10.8203 12.3574C10.2695 12.3457 9.68359 12.1934 9.0625 11.9004V11.9355C9.0625 12.8145 9.35547 13.5967 9.94141 14.2822C10.5273 14.9678 11.248 15.3926 12.1035 15.5566C11.7637 15.6504 11.4648 15.6973 11.207 15.6973C11.0547 15.6973 10.8262 15.6738 10.5215 15.627C10.7676 16.3652 11.2041 16.9746 11.8311 17.4551C12.458 17.9355 13.1699 18.1816 13.9668 18.1934C12.6074 19.248 11.0781 19.7754 9.37891 19.7754C9.07422 19.7754 8.78125 19.7578 8.5 19.7227C10.2344 20.8242 12.1211 21.375 14.1602 21.375C15.4727 21.375 16.7031 21.167 17.8516 20.751C19 20.335 19.9844 19.7783 20.8047 19.0811C21.625 18.3838 22.3311 17.5811 22.9229 16.6729C23.5146 15.7646 23.9541 14.8154 24.2412 13.8252C24.5283 12.835 24.6719 11.8477 24.6719 10.8633C24.6719 10.6523 24.666 10.4941 24.6543 10.3887C25.3926 9.86133 26.0078 9.22266 26.5 8.47266ZM31 5.0625V21.9375C31 23.332 30.5049 24.5244 29.5146 25.5146C28.5244 26.5049 27.332 27 25.9375 27H9.0625C7.66797 27 6.47559 26.5049 5.48535 25.5146C4.49512 24.5244 4 23.332 4 21.9375V5.0625C4 3.66797 4.49512 2.47559 5.48535 1.48535C6.47559 0.495117 7.66797 0 9.0625 0H25.9375C27.332 0 28.5244 0.495117 29.5146 1.48535C30.5049 2.47559 31 3.66797 31 5.0625Z" fill="#601005"></path>
</g>
</g>
<defs>
<filter id="filter0_d_184_349" x="0" y="0" width="35" height="36" filterUnits="userSpaceOnUse" color-interpolation-filters="sRGB">
<feFlood flood-opacity="0" result="BackgroundImageFix"></feFlood>
<feColorMatrix in="SourceAlpha" type="matrix" values="0 0 0 0 0 0 0 0 0 0 0 0 0 0 0 0 0 0 127 0" result="hardAlpha"></feColorMatrix>
<feOffset dy="4"></feOffset>
<feGaussianBlur stdDeviation="2"></feGaussianBlur>
<feComposite in2="hardAlpha" operator="out"></feComposite>
<feColorMatrix type="matrix" values="0 0 0 0 0 0 0 0 0 0 0 0 0 0 0 0 0 0 0.25 0"></feColorMatrix>
<feBlend mode="normal" in2="BackgroundImageFix" result="effect1_dropShadow_184_349"></feBlend>
<feBlend mode="normal" in="SourceGraphic" in2="effect1_dropShadow_184_349" result="shape"></feBlend>
</filter>
<clipPath id="clip0_184_349">
<rect x="4" width="27" height="27" rx="5" fill="white"></rect>
</clipPath>
</defs>
</svg>
