<svg width="17" height="18" viewBox="0 0 17 18" fill="none" xmlns="http://www.w3.org/2000/svg">
<path d="M15.3417 1.11002L15.7842 1.55252C16.394 2.16302 16.3017 3.24527 15.5765 3.96977L6.45123 13.095L3.49473 14.1765C3.12348 14.313 2.76198 14.136 2.68848 13.7828C2.66364 13.6546 2.67533 13.5221 2.72223 13.4003L3.82473 10.4183L12.9245 1.31777C13.6497 0.593269 14.732 0.500269 15.3417 1.11077V1.11002ZM6.05298 2.01752C6.15147 2.01752 6.249 2.03692 6.33999 2.07461C6.43098 2.1123 6.51366 2.16754 6.58331 2.23719C6.65295 2.30683 6.7082 2.38951 6.74589 2.48051C6.78358 2.5715 6.80298 2.66903 6.80298 2.76752C6.80298 2.86601 6.78358 2.96354 6.74589 3.05453C6.7082 3.14553 6.65295 3.22821 6.58331 3.29785C6.51366 3.36749 6.43098 3.42274 6.33999 3.46043C6.249 3.49812 6.15147 3.51752 6.05298 3.51752H3.05298C2.65515 3.51752 2.27362 3.67555 1.99232 3.95686C1.71101 4.23816 1.55298 4.61969 1.55298 5.01752V14.0175C1.55298 14.4153 1.71101 14.7969 1.99232 15.0782C2.27362 15.3595 2.65515 15.5175 3.05298 15.5175H12.053C12.4508 15.5175 12.8323 15.3595 13.1136 15.0782C13.3949 14.7969 13.553 14.4153 13.553 14.0175V11.0175C13.553 10.8186 13.632 10.6278 13.7726 10.4872C13.9133 10.3465 14.1041 10.2675 14.303 10.2675C14.5019 10.2675 14.6927 10.3465 14.8333 10.4872C14.974 10.6278 15.053 10.8186 15.053 11.0175V14.0175C15.053 14.8132 14.7369 15.5762 14.1743 16.1388C13.6117 16.7014 12.8486 17.0175 12.053 17.0175H3.05298C2.25733 17.0175 1.49427 16.7014 0.931658 16.1388C0.369049 15.5762 0.0529785 14.8132 0.0529785 14.0175V5.01752C0.0529785 4.22187 0.369049 3.45881 0.931658 2.8962C1.49427 2.33359 2.25733 2.01752 3.05298 2.01752H6.05298V2.01752Z" fill="white"></path>
</svg>
